<svg width="29" height="29" viewBox="0 0 29 29" fill="none" xmlns="http://www.w3.org/2000/svg">
<path d="M10.2982 21.2644L10.2982 19.9206L10.7572 19.4443C13.1373 21.4855 16.3844 22.5402 19.8356 21.9618C24.5618 21.1623 28.3359 17.2159 28.9139 12.4529C29.798 5.25736 23.7457 -0.798437 16.5544 0.086117C11.7942 0.66448 7.85007 4.44085 7.05104 9.16981C6.47302 12.623 7.52706 15.872 9.56714 18.2535L9.09112 18.7128L7.74807 18.7128L0.522775 25.9423C-0.174255 26.6398 -0.174255 27.7795 0.522774 28.4769C1.2198 29.1744 2.35885 29.1744 3.05588 28.4769L10.2982 21.2644ZM10.2982 11.058C10.2982 6.82234 13.7153 3.4032 17.9485 3.4032C22.1817 3.4032 25.5988 6.82234 25.5988 11.058C25.5988 15.2937 22.1817 18.7128 17.9485 18.7128C13.7153 18.7128 10.2982 15.2937 10.2982 11.058Z" fill="white"/>
</svg>
