<svg width="319" height="139" viewBox="0 0 319 139" fill="none" xmlns="http://www.w3.org/2000/svg">
<g filter="url(#filter0_di_244_2)">
<rect x="4" y="12" width="286" height="58" rx="29" fill="url(#paint0_linear_244_2)"/>
</g>
<circle cx="279" cy="40" r="40" fill="#EB3045"/>
<path d="M264 23.5641V60.4359C264 63.2476 267.087 64.9559 269.465 63.4256L298.35 44.9896C300.55 43.6016 300.55 40.3984 298.35 38.9748L269.465 20.5744C267.087 19.0441 264 20.7524 264 23.5641Z" fill="black"/>
<path d="M152.031 117.354V123.156H129.893L129.569 118.599L141.896 94.7422H147.424L141.771 105.351L136.392 117.354H152.031ZM148.943 94.7422V131H141.945V94.7422H148.943ZM164.034 94.7422V131H156.737V94.7422H164.034ZM182.038 94.7422L170.284 112.747L163.087 121.711L161.693 114.415L166.35 106.646L173.173 94.7422H182.038ZM173.621 131L165.702 114.34L171.056 109.609L182.212 131H173.621Z" fill="url(#paint1_radial_244_2)"/>
<path d="M50.9922 42.9805H45.1719V38.2344H50.9727C51.806 38.2344 52.4766 38.0521 52.9844 37.6875C53.4922 37.3229 53.8633 36.8216 54.0977 36.1836C54.332 35.5326 54.4492 34.8034 54.4492 33.9961C54.4492 33.1758 54.332 32.4076 54.0977 31.6914C53.8633 30.9753 53.4922 30.4023 52.9844 29.9727C52.4766 29.5299 51.8125 29.3086 50.9922 29.3086H47.0078V53H41.3047V24.5625H50.9922C52.9062 24.5625 54.5534 24.9661 55.9336 25.7734C57.3138 26.5807 58.3685 27.694 59.0977 29.1133C59.8398 30.5195 60.2109 32.1341 60.2109 33.957C60.2109 35.7799 59.8398 37.3685 59.0977 38.7227C58.3555 40.0768 57.2943 41.125 55.9141 41.8672C54.5469 42.6094 52.9062 42.9805 50.9922 42.9805ZM69.5078 23V53H64.0195V23H69.5078ZM83.1602 48.1367V38.3711C83.1602 37.7331 83.082 37.2253 82.9258 36.8477C82.7826 36.4701 82.5612 36.1966 82.2617 36.0273C81.9753 35.8451 81.6237 35.7539 81.207 35.7539C80.7383 35.7539 80.3477 35.8516 80.0352 36.0469C79.7227 36.2422 79.4883 36.5221 79.332 36.8867C79.1888 37.2513 79.1172 37.6875 79.1172 38.1953H73.6289C73.6289 37.2839 73.8047 36.4245 74.1562 35.6172C74.5078 34.7969 75.0221 34.0807 75.6992 33.4688C76.3893 32.8438 77.2096 32.3555 78.1602 32.0039C79.1107 31.6523 80.1784 31.4766 81.3633 31.4766C82.7695 31.4766 84.0195 31.7174 85.1133 32.1992C86.207 32.668 87.0729 33.4167 87.7109 34.4453C88.349 35.474 88.668 36.8086 88.668 38.4492V47.8633C88.668 49.0482 88.7266 50.0117 88.8438 50.7539C88.974 51.4961 89.1628 52.1341 89.4102 52.668V53H83.9023C83.6549 52.4141 83.4661 51.6849 83.3359 50.8125C83.2188 49.9271 83.1602 49.0352 83.1602 48.1367ZM83.8242 40.0898L83.8438 43.3711H81.832C81.3112 43.3711 80.8555 43.4557 80.4648 43.625C80.0872 43.7943 79.7682 44.0352 79.5078 44.3477C79.2474 44.6471 79.0521 44.9987 78.9219 45.4023C78.8047 45.806 78.7461 46.2357 78.7461 46.6914C78.7461 47.1992 78.8177 47.6289 78.9609 47.9805C79.1042 48.332 79.319 48.599 79.6055 48.7812C79.8919 48.9635 80.2305 49.0547 80.6211 49.0547C81.2201 49.0547 81.7409 48.931 82.1836 48.6836C82.6263 48.4362 82.9518 48.1367 83.1602 47.7852C83.3815 47.4336 83.4531 47.1081 83.375 46.8086L84.625 48.9375C84.4688 49.4193 84.2539 49.9206 83.9805 50.4414C83.7201 50.9622 83.388 51.444 82.9844 51.8867C82.5807 52.3294 82.0794 52.694 81.4805 52.9805C80.8945 53.2539 80.1979 53.3906 79.3906 53.3906C78.2578 53.3906 77.2227 53.1302 76.2852 52.6094C75.3477 52.0885 74.6055 51.3594 74.0586 50.4219C73.5247 49.4844 73.2578 48.3711 73.2578 47.082C73.2578 46.0143 73.4271 45.0508 73.7656 44.1914C74.1172 43.319 74.638 42.5833 75.3281 41.9844C76.0182 41.3724 76.8906 40.9036 77.9453 40.5781C79 40.2526 80.237 40.0898 81.6562 40.0898H83.8242ZM97.7109 50.5781L102.125 31.8672H107.828L100.875 56.1641C100.719 56.6979 100.504 57.2708 100.23 57.8828C99.957 58.5078 99.5924 59.0938 99.1367 59.6406C98.694 60.2005 98.1341 60.6562 97.457 61.0078C96.7799 61.3594 95.9661 61.5352 95.0156 61.5352C94.5339 61.5352 94.1432 61.5026 93.8438 61.4375C93.5573 61.3854 93.1927 61.2943 92.75 61.1641V56.9062C92.8672 56.9062 92.9779 56.9062 93.082 56.9062C93.1992 56.9193 93.3099 56.9258 93.4141 56.9258C94.026 56.9258 94.5143 56.8411 94.8789 56.6719C95.2435 56.5156 95.5365 56.2682 95.7578 55.9297C95.9922 55.5911 96.1875 55.168 96.3438 54.6602L97.7109 50.5781ZM96.5781 31.8672L99.8594 47.0234L100.602 53.1953L96.9102 53.5469L90.7188 31.8672H96.5781ZM121.812 24.5625V53H116.129V24.5625H121.812ZM128.883 24.5625V29.3086H109.195V24.5625H128.883ZM141.363 46.9258L146.754 24.5625H152.926L144.684 53H140.523L141.363 46.9258ZM136.754 24.5625L142.125 46.9258L143.004 53H138.824L130.641 24.5625H136.754Z" fill="white"/>
<defs>
<filter id="filter0_di_244_2" x="0" y="12" width="294" height="66" filterUnits="userSpaceOnUse" color-interpolation-filters="sRGB">
<feFlood flood-opacity="0" result="BackgroundImageFix"/>
<feColorMatrix in="SourceAlpha" type="matrix" values="0 0 0 0 0 0 0 0 0 0 0 0 0 0 0 0 0 0 127 0" result="hardAlpha"/>
<feOffset dy="4"/>
<feGaussianBlur stdDeviation="2"/>
<feComposite in2="hardAlpha" operator="out"/>
<feColorMatrix type="matrix" values="0 0 0 0 0 0 0 0 0 0 0 0 0 0 0 0 0 0 0.25 0"/>
<feBlend mode="normal" in2="BackgroundImageFix" result="effect1_dropShadow_244_2"/>
<feBlend mode="normal" in="SourceGraphic" in2="effect1_dropShadow_244_2" result="shape"/>
<feColorMatrix in="SourceAlpha" type="matrix" values="0 0 0 0 0 0 0 0 0 0 0 0 0 0 0 0 0 0 127 0" result="hardAlpha"/>
<feOffset dy="4"/>
<feGaussianBlur stdDeviation="2"/>
<feComposite in2="hardAlpha" operator="arithmetic" k2="-1" k3="1"/>
<feColorMatrix type="matrix" values="0 0 0 0 0 0 0 0 0 0 0 0 0 0 0 0 0 0 0.25 0"/>
<feBlend mode="normal" in2="shape" result="effect2_innerShadow_244_2"/>
</filter>
<linearGradient id="paint0_linear_244_2" x1="147" y1="12" x2="147" y2="70" gradientUnits="userSpaceOnUse">
<stop stop-color="#7D7171"/>
<stop offset="0.645833"/>
</linearGradient>
<radialGradient id="paint1_radial_244_2" cx="0" cy="0" r="1" gradientUnits="userSpaceOnUse" gradientTransform="translate(161 111.5) rotate(90) scale(27.5 33)">
<stop stop-color="white"/>
<stop offset="0.692708" stop-color="#C90404"/>
<stop offset="0.90625" stop-color="#C90404"/>
</radialGradient>
</defs>
</svg>
